<svg xmlns="http://www.w3.org/2000/svg" viewBox="0 0 1200 1200" role="img" aria-label="Morant Family Reunion 2026 San Antonio Texas logo">
  <rect width="1200" height="1200" fill="#000"/>
  <style>
    .white{fill:none;stroke:#fff;stroke-width:18;stroke-linecap:round;stroke-linejoin:round}.txt{fill:#fff;font-family:Georgia,serif;font-weight:700}.red{fill:#c51620}.thin{fill:none;stroke:#fff;stroke-width:10;stroke-linecap:round;stroke-linejoin:round}
  </style>
  <g transform="translate(600 140)">
    <text class="txt" font-size="92" text-anchor="middle" letter-spacing="34">MORANT</text>
  </g>
  <g transform="translate(0 35)">
    <path class="thin" d="M425 345c45-35 210-55 345-35 42 6 43 45 6 58-106 36-234 46-375 85 37-33 21-57 24-108z"/>
    <path class="thin" d="M380 390c-48 25-115 23-140 0-28-27-1-70 48-76 42-6 69 21 92 76z"/>
    <path class="thin" d="M392 350c3-72 16-150 80-151 70-2 110 31 117 131-42 24-126 30-197 20z"/>
    <path class="thin" d="M440 230c26 9 38 4 52-22M520 210c24 26 53 31 77 11"/>
  </g>
  <text class="txt" x="190" y="540" font-size="78" text-anchor="middle">20</text>
  <text class="txt" x="190" y="645" font-size="78" text-anchor="middle">26</text>
  <path class="white" d="M375 465v220H130l85 78 45 112 55 50 42-20 105-4 62 60 40 125 114 50 100 22 24-26-14-109 38-91 70-34 32-56 67-20 45-70 10-120-25-120-100-48-125 8-110-28-120 5-40-42-50-10-80 5-55 55z"/>
  <path class="white" d="M610 405v92c0 22 36 38 54 16 34 31 75 40 114 37 43-3 85 4 126 24"/>
  <text class="txt" x="645" y="468" font-size="54">San Antonio, TX</text>
  <text class="txt" x="520" y="690" font-size="92">Family</text>
  <text class="txt" x="490" y="815" font-size="92">Reunion</text>
  <path class="red" d="M880 630l28 84 88 1-71 52 26 85-71-51-72 51 27-85-72-52 89-1z"/>
</svg>
