<svg xmlns="http://www.w3.org/2000/svg" viewBox="0 0 1024 1024" role="img" aria-label="Morant Family Reunion 2026 San Antonio Texas logo">
  <path d="M 529 655 L 529 659 L 531 661 L 537 662 L 537 695 L 531 698 L 532 704 L 554 703 L 554 698 L 546 694 L 546 673 L 548 667 L 553 662 L 558 660 L 563 660 L 569 665 L 570 703 L 574 705 L 586 703 L 586 697 L 579 695 L 579 667 L 576 658 L 572 654 L 565 651 L 557 651 L 547 656 L 545 653 L 531 653 Z M 669 653 L 669 658 L 677 661 L 677 694 L 670 697 L 671 703 L 691 704 L 693 702 L 693 696 L 686 694 L 686 668 L 692 661 L 697 659 L 704 660 L 709 668 L 709 703 L 725 703 L 725 697 L 718 695 L 718 665 L 712 654 L 703 650 L 692 651 L 686 655 L 684 651 L 671 651 Z M 593 649 L 591 650 L 590 655 L 591 657 L 598 659 L 598 692 L 593 693 L 591 699 L 592 701 L 613 701 L 614 694 L 607 691 L 607 651 L 605 649 Z M 470 652 L 470 658 L 477 660 L 477 687 L 479 694 L 483 699 L 491 703 L 501 703 L 509 699 L 514 703 L 523 703 L 526 701 L 525 694 L 520 694 L 518 692 L 518 651 L 512 650 L 502 652 L 502 658 L 509 660 L 509 688 L 501 694 L 493 694 L 487 688 L 486 651 L 483 649 L 472 650 Z M 440 648 L 432 651 L 424 659 L 421 667 L 421 683 L 425 692 L 430 697 L 439 701 L 452 701 L 461 697 L 464 694 L 464 690 L 459 687 L 450 692 L 440 692 L 434 688 L 431 683 L 431 679 L 463 678 L 465 675 L 464 663 L 460 655 L 454 650 Z M 431 666 L 436 659 L 440 657 L 447 657 L 453 661 L 455 669 L 432 670 Z M 638 647 L 628 651 L 621 659 L 618 667 L 618 681 L 621 689 L 628 697 L 638 701 L 646 701 L 653 699 L 662 691 L 666 680 L 666 668 L 664 661 L 656 651 L 646 647 Z M 639 656 L 646 656 L 654 662 L 657 672 L 655 685 L 646 692 L 639 692 L 633 689 L 627 678 L 627 671 L 630 663 Z M 601 631 L 596 635 L 596 640 L 598 643 L 603 644 L 608 640 L 608 635 Z M 362 627 L 360 629 L 360 634 L 368 637 L 368 688 L 362 689 L 360 691 L 360 696 L 362 698 L 386 697 L 386 690 L 378 688 L 378 671 L 385 670 L 403 697 L 410 699 L 416 698 L 417 691 L 407 687 L 396 669 L 402 666 L 410 656 L 411 646 L 408 637 L 397 628 Z M 378 637 L 389 636 L 397 639 L 401 646 L 399 656 L 390 661 L 379 661 Z M 491 548 L 491 553 L 498 555 L 498 588 L 492 590 L 491 594 L 493 597 L 514 597 L 514 590 L 508 588 L 507 566 L 509 560 L 517 554 L 524 554 L 529 560 L 530 597 L 545 597 L 546 591 L 538 588 L 538 566 L 540 560 L 545 555 L 550 553 L 556 554 L 561 561 L 561 595 L 563 597 L 576 597 L 578 595 L 578 590 L 570 587 L 570 557 L 568 552 L 563 547 L 559 545 L 546 545 L 536 552 L 526 545 L 516 545 L 508 550 L 506 546 L 493 546 Z M 444 546 L 442 549 L 442 557 L 445 564 L 451 563 L 452 553 L 463 552 L 468 555 L 470 565 L 448 567 L 442 570 L 438 580 L 441 590 L 451 596 L 464 595 L 470 591 L 473 596 L 486 596 L 487 589 L 479 586 L 479 556 L 475 549 L 466 544 L 450 544 Z M 448 583 L 448 578 L 452 575 L 470 576 L 469 582 L 460 587 L 452 587 Z M 586 542 L 583 544 L 582 548 L 584 551 L 590 552 L 590 584 L 588 586 L 584 586 L 582 588 L 582 592 L 584 594 L 604 594 L 606 592 L 606 587 L 598 584 L 599 545 L 596 542 Z M 696 540 L 674 541 L 674 547 L 679 549 L 667 576 L 655 550 L 660 546 L 659 540 L 638 541 L 638 547 L 643 548 L 646 551 L 662 588 L 659 596 L 655 600 L 645 604 L 648 611 L 655 610 L 665 603 L 670 595 L 689 549 L 697 546 Z M 591 525 L 588 528 L 587 533 L 589 536 L 595 537 L 598 535 L 599 529 L 595 525 Z M 390 524 L 388 526 L 388 531 L 396 534 L 396 583 L 388 586 L 388 592 L 390 594 L 414 594 L 416 593 L 416 586 L 408 585 L 406 583 L 406 565 L 415 564 L 418 571 L 424 571 L 425 550 L 419 548 L 414 555 L 408 555 L 406 553 L 406 534 L 424 533 L 426 535 L 426 543 L 428 545 L 434 545 L 436 528 L 433 524 Z M 190 523 L 184 530 L 184 536 L 186 538 L 190 538 L 193 533 L 199 529 L 205 529 L 210 532 L 212 540 L 204 554 L 184 570 L 184 577 L 222 577 L 222 568 L 203 567 L 214 556 L 220 545 L 221 534 L 218 527 L 214 523 L 206 520 L 198 520 Z M 245 519 L 239 522 L 232 529 L 228 537 L 227 560 L 230 568 L 236 574 L 243 577 L 252 577 L 259 574 L 264 569 L 267 562 L 266 551 L 264 547 L 256 541 L 243 540 L 237 543 L 236 540 L 238 535 L 244 529 L 252 527 L 262 530 L 265 523 L 256 519 Z M 241 549 L 250 548 L 257 553 L 258 560 L 253 567 L 243 568 L 238 564 L 236 560 L 236 553 Z M 611 516 L 609 518 L 609 523 L 612 525 L 617 525 L 617 585 L 610 587 L 610 593 L 613 595 L 633 594 L 635 592 L 634 586 L 628 586 L 626 584 L 626 517 L 624 515 Z M 186 433 L 181 440 L 182 447 L 186 448 L 194 439 L 202 438 L 208 442 L 209 451 L 204 460 L 194 470 L 181 479 L 181 485 L 184 487 L 219 486 L 219 477 L 200 476 L 212 464 L 217 455 L 218 443 L 215 436 L 211 432 L 203 429 L 196 429 Z M 243 428 L 234 432 L 227 440 L 224 448 L 224 466 L 227 474 L 234 482 L 241 485 L 253 485 L 261 481 L 269 471 L 271 465 L 271 448 L 267 438 L 260 431 L 253 428 Z M 244 437 L 254 438 L 260 444 L 262 450 L 261 466 L 254 475 L 249 477 L 242 476 L 236 471 L 232 459 L 233 450 L 236 443 Z M 820 419 L 816 421 L 818 424 L 816 428 L 820 426 Z M 578 402 L 578 407 L 581 407 L 584 403 L 588 403 L 591 406 L 591 409 L 579 411 L 576 415 L 577 421 L 582 424 L 590 422 L 598 423 L 598 420 L 595 419 L 595 407 L 593 402 L 590 400 L 581 400 Z M 580 418 L 582 414 L 591 414 L 590 418 L 587 420 L 582 420 Z M 601 401 L 601 403 L 605 405 L 605 419 L 602 420 L 602 423 L 612 422 L 609 419 L 609 407 L 614 403 L 617 403 L 620 406 L 620 422 L 628 422 L 628 420 L 624 418 L 624 404 L 620 400 L 614 399 L 610 401 Z M 797 398 L 792 401 L 790 405 L 790 415 L 797 422 L 806 422 L 812 415 L 812 406 L 807 399 Z M 800 401 L 804 402 L 808 407 L 808 414 L 802 419 L 796 417 L 794 414 L 794 406 Z M 778 398 L 777 400 L 780 402 L 780 417 L 777 421 L 784 422 L 787 421 L 787 418 L 784 417 L 784 399 Z M 748 398 L 748 401 L 751 403 L 751 417 L 748 418 L 748 421 L 758 421 L 758 418 L 755 417 L 755 405 L 758 402 L 764 402 L 766 404 L 766 420 L 768 422 L 774 421 L 774 419 L 770 417 L 770 403 L 767 399 L 758 398 L 756 400 L 754 398 Z M 676 399 L 676 402 L 679 403 L 680 417 L 676 419 L 677 422 L 687 421 L 686 418 L 683 417 L 683 406 L 689 401 L 694 403 L 695 421 L 700 422 L 703 420 L 699 417 L 699 405 L 694 398 L 687 398 L 684 400 L 682 398 Z M 731 396 L 724 401 L 722 411 L 725 418 L 730 421 L 737 421 L 744 415 L 745 406 L 740 398 Z M 731 400 L 738 401 L 741 406 L 740 413 L 736 417 L 731 417 L 726 411 L 727 404 Z M 864 391 L 864 394 L 869 397 L 876 407 L 864 423 L 874 424 L 875 421 L 873 419 L 879 411 L 884 419 L 882 422 L 883 424 L 893 424 L 893 421 L 881 407 L 887 399 L 893 395 L 893 392 L 883 392 L 882 394 L 884 396 L 879 403 L 873 396 L 875 394 L 874 391 Z M 559 391 L 554 394 L 552 402 L 557 408 L 566 411 L 569 415 L 566 420 L 559 420 L 555 415 L 552 415 L 552 421 L 557 424 L 566 424 L 572 419 L 572 411 L 570 408 L 559 404 L 557 402 L 557 398 L 564 395 L 568 398 L 568 400 L 571 400 L 572 397 L 569 392 Z M 835 390 L 836 400 L 839 399 L 840 394 L 846 395 L 845 418 L 841 420 L 841 423 L 853 423 L 853 420 L 849 418 L 850 395 L 856 394 L 857 400 L 860 400 L 860 390 Z M 710 390 L 709 396 L 705 397 L 705 400 L 709 401 L 709 417 L 716 421 L 719 420 L 720 417 L 715 417 L 713 415 L 713 401 L 719 400 L 719 397 L 714 397 L 713 390 Z M 158 598 L 157 605 L 159 609 L 176 629 L 220 670 L 241 683 L 255 717 L 256 729 L 260 742 L 265 751 L 274 761 L 301 776 L 316 790 L 327 795 L 338 795 L 345 792 L 352 785 L 360 771 L 364 759 L 368 755 L 387 750 L 428 751 L 438 762 L 454 771 L 460 777 L 473 815 L 485 838 L 500 860 L 509 869 L 521 875 L 525 880 L 526 901 L 545 943 L 552 949 L 572 953 L 582 958 L 595 968 L 649 979 L 657 979 L 661 977 L 664 968 L 648 917 L 648 897 L 654 877 L 661 871 L 664 862 L 687 844 L 688 840 L 684 828 L 716 827 L 736 817 L 752 807 L 753 794 L 770 793 L 778 781 L 794 767 L 836 750 L 842 740 L 845 707 L 850 684 L 856 667 L 855 653 L 831 594 L 830 512 L 823 504 L 790 489 L 772 477 L 742 476 L 733 478 L 723 485 L 719 485 L 698 477 L 685 477 L 670 482 L 665 482 L 653 477 L 632 478 L 617 466 L 587 466 L 581 459 L 553 461 L 534 445 L 516 444 L 514 442 L 513 390 L 488 398 L 488 447 L 490 454 L 500 465 L 512 470 L 523 470 L 533 480 L 542 485 L 550 487 L 569 486 L 584 493 L 607 492 L 615 499 L 625 504 L 638 505 L 648 503 L 665 509 L 676 508 L 685 504 L 697 504 L 712 511 L 728 512 L 736 509 L 743 503 L 763 503 L 777 512 L 804 525 L 805 595 L 813 622 L 830 661 L 819 702 L 817 728 L 780 744 L 771 750 L 755 768 L 748 768 L 737 772 L 728 782 L 726 791 L 709 801 L 676 801 L 668 805 L 662 811 L 658 819 L 658 831 L 644 843 L 639 853 L 632 861 L 625 879 L 620 907 L 623 926 L 629 946 L 624 947 L 607 943 L 589 931 L 565 923 L 552 895 L 553 883 L 547 865 L 537 854 L 526 848 L 519 841 L 500 811 L 484 766 L 478 757 L 468 748 L 457 743 L 446 731 L 432 724 L 385 723 L 357 731 L 350 735 L 343 742 L 335 763 L 331 767 L 317 754 L 289 738 L 283 728 L 281 711 L 264 669 L 255 659 L 230 643 L 208 622 L 212 620 L 343 616 L 352 612 L 360 604 L 365 591 L 366 435 L 339 443 L 339 572 L 337 590 L 162 595 Z M 654 389 L 644 417 L 640 418 L 640 422 L 651 422 L 651 419 L 648 417 L 650 412 L 662 412 L 665 417 L 661 419 L 662 422 L 673 422 L 674 420 L 669 416 L 659 390 Z M 656 396 L 661 406 L 660 408 L 651 407 Z M 781 388 L 779 391 L 780 393 L 783 393 L 784 389 Z M 224 364 L 225 377 L 230 396 L 237 409 L 245 417 L 259 423 L 293 427 L 337 426 L 367 401 L 414 370 L 373 368 L 354 363 L 345 358 L 337 349 L 333 339 L 332 327 L 306 320 L 280 316 L 261 317 L 240 326 L 233 333 L 228 342 Z M 668 319 L 664 313 L 655 308 L 645 306 L 621 306 L 582 312 L 544 322 L 497 339 L 448 362 L 410 384 L 377 406 L 361 420 L 434 400 L 534 369 L 638 348 L 660 337 L 667 329 Z M 514 236 L 503 224 L 482 212 L 467 207 L 449 204 L 428 205 L 416 209 L 405 228 L 400 232 L 389 236 L 380 235 L 372 231 L 377 229 L 385 229 L 395 225 L 401 220 L 405 211 L 373 212 L 360 217 L 352 225 L 347 241 L 342 317 L 342 338 L 344 343 L 353 352 L 370 358 L 387 360 L 435 358 L 491 332 L 539 315 L 525 257 Z M 434 220 L 435 219 L 442 226 L 456 233 L 475 237 L 501 237 L 503 239 L 493 244 L 476 248 L 456 246 L 448 242 L 439 233 Z M 788 96 L 780 116 L 781 119 L 790 121 L 795 109 L 811 114 L 812 118 L 795 167 L 791 168 L 784 166 L 781 173 L 783 176 L 812 185 L 815 177 L 808 174 L 806 170 L 823 120 L 825 119 L 839 124 L 840 127 L 837 137 L 839 139 L 846 140 L 854 119 L 847 115 Z M 251 82 L 248 81 L 231 87 L 222 149 L 180 103 L 171 104 L 160 109 L 160 113 L 163 117 L 169 116 L 171 118 L 182 172 L 175 175 L 174 177 L 176 183 L 183 183 L 205 175 L 202 167 L 195 168 L 193 165 L 186 133 L 187 129 L 223 168 L 232 165 L 238 122 L 240 122 L 240 113 L 255 149 L 254 151 L 248 153 L 248 160 L 250 162 L 254 162 L 277 155 L 278 150 L 276 146 L 274 145 L 268 147 L 266 145 L 247 98 L 246 93 L 252 90 Z M 657 70 L 655 77 L 657 80 L 664 81 L 665 86 L 654 138 L 643 139 L 642 147 L 645 149 L 674 152 L 675 144 L 672 142 L 667 142 L 666 136 L 676 95 L 711 160 L 719 161 L 721 159 L 733 97 L 735 94 L 743 95 L 746 89 L 745 86 L 718 80 L 714 81 L 712 86 L 713 89 L 721 91 L 722 95 L 712 137 L 679 74 L 671 71 Z M 568 63 L 565 66 L 534 130 L 532 132 L 524 132 L 522 139 L 524 142 L 553 143 L 554 135 L 546 132 L 552 121 L 583 122 L 587 134 L 579 136 L 579 144 L 608 146 L 610 144 L 610 137 L 600 134 L 579 67 L 577 64 Z M 570 83 L 580 111 L 558 111 L 557 109 Z M 326 65 L 317 70 L 308 79 L 303 89 L 301 100 L 302 110 L 308 125 L 320 137 L 336 143 L 357 142 L 370 136 L 379 127 L 385 114 L 385 94 L 380 81 L 369 69 L 357 63 L 337 62 Z M 327 77 L 337 73 L 351 73 L 360 77 L 368 85 L 373 99 L 373 111 L 370 119 L 364 126 L 350 132 L 338 132 L 328 128 L 319 119 L 314 106 L 314 97 L 318 86 Z M 421 58 L 419 61 L 420 67 L 430 69 L 431 127 L 423 128 L 421 130 L 421 136 L 423 138 L 451 138 L 453 136 L 453 130 L 451 128 L 443 127 L 443 107 L 451 106 L 474 137 L 490 138 L 492 136 L 492 130 L 490 128 L 482 128 L 465 105 L 476 99 L 481 91 L 482 77 L 477 67 L 471 62 L 460 58 Z M 443 69 L 453 68 L 464 71 L 470 79 L 470 86 L 467 91 L 460 95 L 444 96 L 442 94 Z" fill="#f7f2ea" fill-rule="evenodd"/>
  <path d="M 747 525 L 735 561 L 733 563 L 694 563 L 697 567 L 725 589 L 725 592 L 723 595 L 713 628 L 725 621 L 747 605 L 781 630 L 769 589 L 801 566 L 799 565 L 783 565 L 782 564 L 761 564 L 759 561 L 748 525 Z" fill="#c92026" fill-rule="evenodd"/>
</svg>