<svg xmlns="http://www.w3.org/2000/svg" viewBox="0 0 1000 1000" role="img" aria-label="Morant Family Reunion 2026 San Antonio Texas logo">
  <rect width="1000" height="1000" fill="#050505"/>
  <text x="500" y="118" text-anchor="middle" font-family="Georgia,serif" font-size="76" font-weight="700" letter-spacing="18" fill="#f7f2ea" transform="rotate(-7 500 118)">MORANT</text>
  <g fill="none" stroke="#f7f2ea" stroke-linecap="round" stroke-linejoin="round">
    <path d="M390 238 C420 205 530 205 562 240 C570 255 575 302 578 330 C520 318 450 320 392 340 C378 305 379 260 390 238 Z" stroke-width="14" fill="#050505"/>
    <path d="M218 342 C306 310 444 316 566 300 C688 285 748 325 710 368 C652 432 486 400 340 412 C260 418 188 390 218 342 Z" stroke-width="14" fill="#050505"/>
    <path d="M424 226 C442 236 470 224 487 202" stroke-width="12"/>
    <path d="M505 205 C535 238 577 246 616 229" stroke-width="12"/>
    <path d="M390 344 C500 305 620 300 720 330 C592 332 485 356 345 424" stroke-width="14"/>
    <path d="M292 422 L354 422 L354 353 L423 353 L423 520 L555 520 L555 447 L610 492 L745 510 L824 562 L876 562 L876 662 L914 733 L856 803 L760 834 L710 894 L625 890 L590 954 L494 919 L450 820 L382 790 L326 798 L285 758 L245 652 L145 602 L204 550 L292 550 Z" stroke-width="24"/>
  </g>
  <text x="178" y="462" text-anchor="middle" font-family="Georgia,serif" font-size="68" fill="#f7f2ea">20</text>
  <text x="178" y="552" text-anchor="middle" font-family="Georgia,serif" font-size="68" fill="#f7f2ea">26</text>
  <text x="670" y="438" text-anchor="middle" font-family="Georgia,serif" font-size="44" fill="#f7f2ea">San Antonio, TX</text>
  <text x="550" y="585" text-anchor="middle" font-family="Georgia,serif" font-size="92" font-weight="700" fill="#f7f2ea">Family</text>
  <text x="535" y="690" text-anchor="middle" font-family="Georgia,serif" font-size="92" font-weight="700" fill="#f7f2ea">Reunion</text>
  <text x="742" y="635" text-anchor="middle" font-size="120" fill="#c92026">★</text>
</svg>